<?xml version="1.0" encoding="UTF-8" standalone="no"?>
<!DOCTYPE svg PUBLIC "-//W3C//DTD SVG 1.1//EN"
 "http://www.w3.org/Graphics/SVG/1.1/DTD/svg11.dtd">
<!-- Generated by graphviz version 2.38.0 (20140413.2041)
 -->
<!-- Title: models_diagram Pages: 1 -->
<svg width="480pt" height="232pt"
 viewBox="0.00 0.00 480.31 232.00" xmlns="http://www.w3.org/2000/svg" xmlns:xlink="http://www.w3.org/1999/xlink">
<g id="graph0" class="graph" transform="scale(1 1) rotate(0) translate(4 228)">
<title>models_diagram</title>
<polygon fill="none" stroke="none" points="-4,4 -4,-228 476.312,-228 476.312,4 -4,4"/>
<!-- _diagram_info -->
<g id="node1" class="node"><title>_diagram_info</title>
<text text-anchor="start" x="8" y="-202.6" font-family="Times,serif" font-size="13.00">Models diagram</text>
<text text-anchor="start" x="8" y="-189.6" font-family="Times,serif" font-size="13.00">Date: Jul 12 2016 &#45; 17:09</text>
<text text-anchor="start" x="8" y="-176.6" font-family="Times,serif" font-size="13.00">Migration version: 20160712200119</text>
<text text-anchor="start" x="8" y="-163.6" font-family="Times,serif" font-size="13.00">Generated by RailRoady 1.5.1</text>
<text text-anchor="start" x="8" y="-150.6" font-family="Times,serif" font-size="13.00">http://railroady.prestonlee.com</text>
</g>
<!-- Comment -->
<g id="node2" class="node"><title>Comment</title>
<path fill="none" stroke="black" d="M236.587,-0.5C236.587,-0.5 460.312,-0.5 460.312,-0.5 466.312,-0.5 472.312,-6.5 472.312,-12.5 472.312,-12.5 472.312,-88.5 472.312,-88.5 472.312,-94.5 466.312,-100.5 460.312,-100.5 460.312,-100.5 236.587,-100.5 236.587,-100.5 230.587,-100.5 224.587,-94.5 224.587,-88.5 224.587,-88.5 224.587,-12.5 224.587,-12.5 224.587,-6.5 230.587,-0.5 236.587,-0.5"/>
<text text-anchor="middle" x="348.45" y="-85.3" font-family="Times,serif" font-size="14.00">Comment</text>
<polyline fill="none" stroke="black" points="224.587,-78.5 472.312,-78.5 "/>
<text text-anchor="start" x="232.587" y="-63.3" font-family="Times,serif" font-size="14.00">id :integer</text>
<text text-anchor="start" x="232.587" y="-49.3" font-family="Times,serif" font-size="14.00">content :character varying</text>
<text text-anchor="start" x="232.587" y="-35.3" font-family="Times,serif" font-size="14.00">post_id :integer</text>
<text text-anchor="start" x="232.587" y="-21.3" font-family="Times,serif" font-size="14.00">created_at :timestamp without time zone</text>
<text text-anchor="start" x="232.587" y="-7.3" font-family="Times,serif" font-size="14.00">updated_at :timestamp without time zone</text>
</g>
<!-- Post -->
<g id="node3" class="node"><title>Post</title>
<path fill="none" stroke="black" d="M236.587,-137.5C236.587,-137.5 460.312,-137.5 460.312,-137.5 466.312,-137.5 472.312,-143.5 472.312,-149.5 472.312,-149.5 472.312,-211.5 472.312,-211.5 472.312,-217.5 466.312,-223.5 460.312,-223.5 460.312,-223.5 236.587,-223.5 236.587,-223.5 230.587,-223.5 224.587,-217.5 224.587,-211.5 224.587,-211.5 224.587,-149.5 224.587,-149.5 224.587,-143.5 230.587,-137.5 236.587,-137.5"/>
<text text-anchor="middle" x="348.45" y="-208.3" font-family="Times,serif" font-size="14.00">Post</text>
<polyline fill="none" stroke="black" points="224.587,-201.5 472.312,-201.5 "/>
<text text-anchor="start" x="232.587" y="-186.3" font-family="Times,serif" font-size="14.00">id :integer</text>
<text text-anchor="start" x="232.587" y="-172.3" font-family="Times,serif" font-size="14.00">content :character varying</text>
<text text-anchor="start" x="232.587" y="-158.3" font-family="Times,serif" font-size="14.00">created_at :timestamp without time zone</text>
<text text-anchor="start" x="232.587" y="-144.3" font-family="Times,serif" font-size="14.00">updated_at :timestamp without time zone</text>
</g>
<!-- Post&#45;&gt;Comment -->
<g id="edge1" class="edge"><title>Post&#45;&gt;Comment</title>
<path fill="none" stroke="#9d7e7c" d="M348.45,-129.167C348.45,-123.196 348.45,-117.058 348.45,-110.975"/>
<ellipse fill="none" stroke="#9d7e7c" cx="348.45" cy="-133.233" rx="4" ry="4"/>
<polygon fill="#9d7e7c" stroke="#9d7e7c" points="348.45,-110.828 352.95,-100.828 348.45,-105.828 348.45,-100.828 348.45,-100.828 348.45,-100.828 348.45,-105.828 343.95,-100.828 348.45,-110.828 348.45,-110.828"/>
</g>
</g>
</svg>
